<mxfile host="app.diagrams.net" agent="Mozilla/5.0 (Macintosh; Intel Mac OS X 10_15_7) AppleWebKit/537.36 (KHTML, like Gecko) Chrome/138.0.0.0 Safari/537.36" version="28.0.9">
  <diagram id="nVM_BpQTg8m4svtKiqBn" name="페이지-1">
    <mxGraphModel dx="1871" dy="1086" grid="1" gridSize="10" guides="1" tooltips="1" connect="1" arrows="1" fold="1" page="1" pageScale="1" pageWidth="827" pageHeight="1169" math="0" shadow="0">
      <root>
        <mxCell id="0" />
        <mxCell id="1" parent="0" />
        <mxCell id="FzRYmF3HzqH8AZuYZzv0-2" value="Server&lt;br&gt;&lt;div&gt;&lt;br&gt;&lt;/div&gt;" style="sketch=0;points=[[0,0,0],[0.25,0,0],[0.5,0,0],[0.75,0,0],[1,0,0],[1,0.25,0],[1,0.5,0],[1,0.75,0],[1,1,0],[0.75,1,0],[0.5,1,0],[0.25,1,0],[0,1,0],[0,0.75,0],[0,0.5,0],[0,0.25,0]];rounded=1;absoluteArcSize=1;arcSize=2;html=1;strokeColor=#6c8ebf;shadow=0;dashed=1;fontSize=12;align=left;verticalAlign=top;spacing=10;spacingTop=-4;whiteSpace=wrap;fillColor=#dae8fc;strokeWidth=5;" parent="1" vertex="1">
          <mxGeometry x="550" y="340" width="2130" height="922" as="geometry" />
        </mxCell>
        <mxCell id="FzRYmF3HzqH8AZuYZzv0-3" value="Docker&lt;div&gt;&lt;br&gt;&lt;/div&gt;" style="sketch=0;points=[[0,0,0],[0.25,0,0],[0.5,0,0],[0.75,0,0],[1,0,0],[1,0.25,0],[1,0.5,0],[1,0.75,0],[1,1,0],[0.75,1,0],[0.5,1,0],[0.25,1,0],[0,1,0],[0,0.75,0],[0,0.5,0],[0,0.25,0]];rounded=1;absoluteArcSize=1;arcSize=2;html=1;strokeColor=light-dark(#B8DEFF,#EDEDED);gradientColor=none;shadow=0;dashed=1;fontSize=12;fontColor=#9E9E9E;align=left;verticalAlign=top;spacing=10;spacingTop=-4;whiteSpace=wrap;fillColor=default;strokeWidth=5;" parent="1" vertex="1">
          <mxGeometry x="570" y="540" width="2080" height="691" as="geometry" />
        </mxCell>
        <mxCell id="FzRYmF3HzqH8AZuYZzv0-5" style="edgeStyle=orthogonalEdgeStyle;shape=connector;rounded=0;orthogonalLoop=1;jettySize=auto;html=1;dashed=0;strokeColor=#4284F3;strokeWidth=2;align=center;verticalAlign=middle;fontFamily=Helvetica;fontSize=12;fontColor=default;labelBackgroundColor=default;startSize=4;endArrow=blockThin;endFill=1;endSize=4;exitX=1;exitY=0.5;exitDx=0;exitDy=0;" parent="1" source="FzRYmF3HzqH8AZuYZzv0-162" edge="1">
          <mxGeometry relative="1" as="geometry">
            <mxPoint x="2378" y="887" as="targetPoint" />
            <mxPoint x="2315" y="887.04347826087" as="sourcePoint" />
          </mxGeometry>
        </mxCell>
        <mxCell id="FzRYmF3HzqH8AZuYZzv0-9" value="" style="image;sketch=0;aspect=fixed;html=1;points=[];align=center;fontSize=12;image=img/lib/mscae/Docker.svg;" parent="1" vertex="1">
          <mxGeometry x="590" y="550" width="119.4" height="80" as="geometry" />
        </mxCell>
        <mxCell id="FzRYmF3HzqH8AZuYZzv0-17" value="" style="group" parent="1" vertex="1" connectable="0">
          <mxGeometry x="1535.9399999999996" y="621" width="574.0600000000004" height="570" as="geometry" />
        </mxCell>
        <mxCell id="FzRYmF3HzqH8AZuYZzv0-18" value="" style="group" parent="FzRYmF3HzqH8AZuYZzv0-17" connectable="0" vertex="1">
          <mxGeometry width="574.0600000000004" height="570" as="geometry" />
        </mxCell>
        <mxCell id="FzRYmF3HzqH8AZuYZzv0-19" value="" style="rounded=1;whiteSpace=wrap;html=1;strokeColor=#5ECF75;strokeWidth=3;fontColor=#5ECF75;" parent="FzRYmF3HzqH8AZuYZzv0-18" vertex="1">
          <mxGeometry width="237.5" height="92" as="geometry" />
        </mxCell>
        <mxCell id="FzRYmF3HzqH8AZuYZzv0-20" value="Member API" style="strokeColor=#dddddd;shadow=1;strokeWidth=1;rounded=1;absoluteArcSize=1;arcSize=2;fontSize=16;fontStyle=1" parent="FzRYmF3HzqH8AZuYZzv0-18" vertex="1">
          <mxGeometry x="24.060000000000002" y="13.25" width="189.38" height="64" as="geometry" />
        </mxCell>
        <mxCell id="FzRYmF3HzqH8AZuYZzv0-146" value="" style="rounded=1;whiteSpace=wrap;html=1;strokeColor=#51CACF;strokeWidth=3;fontColor=#5ECF75;fillColor=none;" parent="FzRYmF3HzqH8AZuYZzv0-18" vertex="1">
          <mxGeometry x="-815.94" y="-60" width="1390" height="630" as="geometry" />
        </mxCell>
        <mxCell id="FzRYmF3HzqH8AZuYZzv0-37" value="" style="group" parent="1" vertex="1" connectable="0">
          <mxGeometry x="2833.0299999999997" y="804" width="90" height="172" as="geometry" />
        </mxCell>
        <mxCell id="FzRYmF3HzqH8AZuYZzv0-38" value="Users" style="rounded=1;absoluteArcSize=1;arcSize=2;html=1;strokeColor=none;gradientColor=none;shadow=0;dashed=0;strokeColor=none;fontSize=12;fontColor=#9E9E9E;align=left;verticalAlign=top;spacing=10;spacingTop=-4;fillColor=#F1F8E9;" parent="FzRYmF3HzqH8AZuYZzv0-37" vertex="1">
          <mxGeometry width="90" height="172" as="geometry" />
        </mxCell>
        <mxCell id="FzRYmF3HzqH8AZuYZzv0-39" value="" style="strokeColor=#dddddd;fillColor=#ffffff;shadow=1;strokeWidth=1;rounded=1;absoluteArcSize=1;arcSize=2;labelPosition=center;verticalLabelPosition=middle;align=center;verticalAlign=bottom;spacingLeft=0;fontColor=#999999;fontSize=12;whiteSpace=wrap;spacingBottom=2;html=1;" parent="FzRYmF3HzqH8AZuYZzv0-37" vertex="1">
          <mxGeometry x="10" y="30" width="70" height="64" as="geometry" />
        </mxCell>
        <mxCell id="FzRYmF3HzqH8AZuYZzv0-40" value="" style="dashed=0;connectable=0;html=1;fillColor=#757575;strokeColor=none;shape=mxgraph.gcp2.laptop;part=1;" parent="FzRYmF3HzqH8AZuYZzv0-39" vertex="1">
          <mxGeometry x="0.5" width="50" height="33" relative="1" as="geometry">
            <mxPoint x="-25" y="18.5" as="offset" />
          </mxGeometry>
        </mxCell>
        <mxCell id="FzRYmF3HzqH8AZuYZzv0-41" value="" style="strokeColor=#dddddd;fillColor=#ffffff;shadow=1;strokeWidth=1;rounded=1;absoluteArcSize=1;arcSize=2;labelPosition=center;verticalLabelPosition=middle;align=center;verticalAlign=bottom;spacingLeft=0;fontColor=#999999;fontSize=12;whiteSpace=wrap;spacingBottom=2;html=1;" parent="FzRYmF3HzqH8AZuYZzv0-37" vertex="1">
          <mxGeometry x="10" y="115" width="70" height="64" as="geometry" />
        </mxCell>
        <mxCell id="FzRYmF3HzqH8AZuYZzv0-42" value="" style="dashed=0;connectable=0;html=1;fillColor=#757575;strokeColor=none;shape=mxgraph.gcp2.mobile_devices;part=1;" parent="FzRYmF3HzqH8AZuYZzv0-41" vertex="1">
          <mxGeometry x="0.5" width="50" height="36.5" relative="1" as="geometry">
            <mxPoint x="-25" y="16.75" as="offset" />
          </mxGeometry>
        </mxCell>
        <mxCell id="FzRYmF3HzqH8AZuYZzv0-44" style="edgeStyle=orthogonalEdgeStyle;shape=connector;rounded=0;orthogonalLoop=1;jettySize=auto;html=1;entryX=-0.034;entryY=0.426;entryDx=0;entryDy=0;entryPerimeter=0;dashed=1;strokeColor=#4284F3;strokeWidth=2;align=center;verticalAlign=middle;fontFamily=Helvetica;fontSize=12;fontColor=default;labelBackgroundColor=default;startSize=4;endArrow=blockThin;endFill=1;endSize=4;dashPattern=1 1;exitX=1;exitY=0.487;exitDx=0;exitDy=0;exitPerimeter=0;" parent="1" source="FzRYmF3HzqH8AZuYZzv0-3" target="FzRYmF3HzqH8AZuYZzv0-38" edge="1">
          <mxGeometry relative="1" as="geometry">
            <mxPoint x="2522" y="885" as="sourcePoint" />
          </mxGeometry>
        </mxCell>
        <mxCell id="FzRYmF3HzqH8AZuYZzv0-58" value="" style="group" parent="1" vertex="1" connectable="0">
          <mxGeometry x="580" y="1171.25" width="2320" height="478.75" as="geometry" />
        </mxCell>
        <mxCell id="FzRYmF3HzqH8AZuYZzv0-59" value="Eureka Client&lt;div&gt;이중화 구조&lt;/div&gt;" style="rounded=1;whiteSpace=wrap;html=1;strokeColor=#5ECF75;strokeWidth=3;fontColor=#5ECF75;" parent="FzRYmF3HzqH8AZuYZzv0-58" vertex="1">
          <mxGeometry width="140" height="64" as="geometry" />
        </mxCell>
        <mxCell id="4CRkzXi-lU_g7i5bI1W7-1" value="&lt;p style=&quot;margin: 0px; font-variant-numeric: normal; font-variant-east-asian: normal; font-variant-alternates: normal; font-size-adjust: none; font-kerning: auto; font-optical-sizing: auto; font-feature-settings: normal; font-variation-settings: normal; font-variant-position: normal; font-variant-emoji: normal; font-stretch: normal; line-height: normal; font-family: &amp;quot;Helvetica Neue&amp;quot;; text-align: start;&quot; class=&quot;p1&quot;&gt;&lt;font style=&quot;font-size: 30px;&quot;&gt;Front API&lt;/font&gt;&lt;/p&gt;&lt;p style=&quot;margin: 0px; font-variant-numeric: normal; font-variant-east-asian: normal; font-variant-alternates: normal; font-size-adjust: none; font-kerning: auto; font-optical-sizing: auto; font-feature-settings: normal; font-variation-settings: normal; font-variant-position: normal; font-variant-emoji: normal; font-stretch: normal; line-height: normal; font-family: &amp;quot;Helvetica Neue&amp;quot;; text-align: start;&quot; class=&quot;p2&quot;&gt;&lt;font style=&quot;font-size: 30px;&quot;&gt;Member API (회원)&lt;/font&gt;&lt;/p&gt;&lt;p style=&quot;margin: 0px; font-variant-numeric: normal; font-variant-east-asian: normal; font-variant-alternates: normal; font-size-adjust: none; font-kerning: auto; font-optical-sizing: auto; font-feature-settings: normal; font-variation-settings: normal; font-variant-position: normal; font-variant-emoji: normal; font-stretch: normal; line-height: normal; font-family: &amp;quot;Helvetica Neue&amp;quot;; text-align: start;&quot; class=&quot;p2&quot;&gt;&lt;font style=&quot;font-size: 30px;&quot;&gt;Auth API (토큰관리, 로그인/로그아웃)&lt;/font&gt;&lt;/p&gt;&lt;p style=&quot;margin: 0px; font-variant-numeric: normal; font-variant-east-asian: normal; font-variant-alternates: normal; font-size-adjust: none; font-kerning: auto; font-optical-sizing: auto; font-feature-settings: normal; font-variation-settings: normal; font-variant-position: normal; font-variant-emoji: normal; font-stretch: normal; line-height: normal; font-family: &amp;quot;Helvetica Neue&amp;quot;; text-align: start;&quot; class=&quot;p2&quot;&gt;&lt;font style=&quot;font-size: 30px;&quot;&gt;EventRegistration API (참가신청)&lt;/font&gt;&lt;/p&gt;&lt;p style=&quot;margin: 0px; font-variant-numeric: normal; font-variant-east-asian: normal; font-variant-alternates: normal; font-size-adjust: none; font-kerning: auto; font-optical-sizing: auto; font-feature-settings: normal; font-variation-settings: normal; font-variant-position: normal; font-variant-emoji: normal; font-stretch: normal; line-height: normal; font-family: &amp;quot;Helvetica Neue&amp;quot;; text-align: start;&quot; class=&quot;p2&quot;&gt;&lt;font style=&quot;font-size: 30px;&quot;&gt;Event API (행사)&lt;/font&gt;&lt;/p&gt;&lt;p style=&quot;margin: 0px; font-variant-numeric: normal; font-variant-east-asian: normal; font-variant-alternates: normal; font-size-adjust: none; font-kerning: auto; font-optical-sizing: auto; font-feature-settings: normal; font-variation-settings: normal; font-variant-position: normal; font-variant-emoji: normal; font-stretch: normal; line-height: normal; font-family: &amp;quot;Helvetica Neue&amp;quot;; text-align: start;&quot; class=&quot;p2&quot;&gt;&lt;font style=&quot;font-size: 30px;&quot;&gt;Recruitment API (모집)&lt;/font&gt;&lt;/p&gt;&lt;p style=&quot;margin: 0px; font-variant-numeric: normal; font-variant-east-asian: normal; font-variant-alternates: normal; font-size-adjust: none; font-kerning: auto; font-optical-sizing: auto; font-feature-settings: normal; font-variation-settings: normal; font-variant-position: normal; font-variant-emoji: normal; font-stretch: normal; line-height: normal; font-family: &amp;quot;Helvetica Neue&amp;quot;; text-align: start;&quot; class=&quot;p2&quot;&gt;&lt;font style=&quot;font-size: 30px;&quot;&gt;Stopover API (경유지)&lt;/font&gt;&lt;/p&gt;&lt;p style=&quot;margin: 0px; font-variant-numeric: normal; font-variant-east-asian: normal; font-variant-alternates: normal; font-size-adjust: none; font-kerning: auto; font-optical-sizing: auto; font-feature-settings: normal; font-variation-settings: normal; font-variant-position: normal; font-variant-emoji: normal; font-stretch: normal; line-height: normal; font-family: &amp;quot;Helvetica Neue&amp;quot;; text-align: start;&quot; class=&quot;p2&quot;&gt;&lt;font style=&quot;font-size: 30px;&quot;&gt;Notice API (공지사항)&lt;/font&gt;&lt;/p&gt;" style="rounded=0;whiteSpace=wrap;html=1;" vertex="1" parent="FzRYmF3HzqH8AZuYZzv0-58">
          <mxGeometry x="1110" y="118.75" width="530" height="360" as="geometry" />
        </mxCell>
        <mxCell id="FzRYmF3HzqH8AZuYZzv0-63" value="" style="rounded=1;whiteSpace=wrap;html=1;strokeColor=#5ECF75;strokeWidth=3;fontColor=#5ECF75;rotation=90;" parent="1" vertex="1">
          <mxGeometry x="2357.35" y="790.02" width="290.06" height="246.75" as="geometry" />
        </mxCell>
        <mxCell id="FzRYmF3HzqH8AZuYZzv0-137" style="edgeStyle=orthogonalEdgeStyle;shape=connector;rounded=0;orthogonalLoop=1;jettySize=auto;html=1;exitX=1;exitY=1;exitDx=0;exitDy=0;entryX=0;entryY=0.5;entryDx=0;entryDy=0;dashed=0;strokeColor=#4284F3;strokeWidth=2;align=center;verticalAlign=middle;fontFamily=Helvetica;fontSize=12;fontColor=default;labelBackgroundColor=default;startSize=4;endArrow=blockThin;endFill=1;endSize=4;startArrow=blockThin;startFill=1;" parent="1" source="FzRYmF3HzqH8AZuYZzv0-87" target="FzRYmF3HzqH8AZuYZzv0-100" edge="1">
          <mxGeometry relative="1" as="geometry" />
        </mxCell>
        <mxCell id="FzRYmF3HzqH8AZuYZzv0-138" style="edgeStyle=orthogonalEdgeStyle;shape=connector;rounded=0;orthogonalLoop=1;jettySize=auto;html=1;entryX=0;entryY=0.5;entryDx=0;entryDy=0;dashed=0;strokeColor=#4284F3;strokeWidth=2;align=center;verticalAlign=middle;fontFamily=Helvetica;fontSize=12;fontColor=default;labelBackgroundColor=default;startSize=4;endArrow=blockThin;endFill=1;endSize=4;exitX=1;exitY=1;exitDx=0;exitDy=0;startArrow=blockThin;startFill=1;" parent="1" source="FzRYmF3HzqH8AZuYZzv0-87" target="FzRYmF3HzqH8AZuYZzv0-96" edge="1">
          <mxGeometry relative="1" as="geometry" />
        </mxCell>
        <mxCell id="FzRYmF3HzqH8AZuYZzv0-139" style="edgeStyle=orthogonalEdgeStyle;shape=connector;rounded=0;orthogonalLoop=1;jettySize=auto;html=1;exitX=0;exitY=1;exitDx=0;exitDy=0;entryX=1;entryY=0.5;entryDx=0;entryDy=0;dashed=0;strokeColor=#4284F3;strokeWidth=2;align=center;verticalAlign=middle;fontFamily=Helvetica;fontSize=12;fontColor=default;labelBackgroundColor=default;startSize=4;endArrow=blockThin;endFill=1;endSize=4;startArrow=blockThin;startFill=1;" parent="1" source="FzRYmF3HzqH8AZuYZzv0-87" target="FzRYmF3HzqH8AZuYZzv0-116" edge="1">
          <mxGeometry relative="1" as="geometry" />
        </mxCell>
        <mxCell id="FzRYmF3HzqH8AZuYZzv0-140" style="edgeStyle=orthogonalEdgeStyle;shape=connector;rounded=0;orthogonalLoop=1;jettySize=auto;html=1;exitX=0;exitY=1;exitDx=0;exitDy=0;entryX=1;entryY=0.5;entryDx=0;entryDy=0;dashed=0;strokeColor=#4284F3;strokeWidth=2;align=center;verticalAlign=middle;fontFamily=Helvetica;fontSize=12;fontColor=default;labelBackgroundColor=default;startSize=4;endArrow=blockThin;endFill=1;endSize=4;startArrow=blockThin;startFill=1;" parent="1" source="FzRYmF3HzqH8AZuYZzv0-87" target="FzRYmF3HzqH8AZuYZzv0-120" edge="1">
          <mxGeometry relative="1" as="geometry" />
        </mxCell>
        <mxCell id="FzRYmF3HzqH8AZuYZzv0-142" style="edgeStyle=orthogonalEdgeStyle;shape=connector;rounded=0;orthogonalLoop=1;jettySize=auto;html=1;exitX=0;exitY=0;exitDx=0;exitDy=0;entryX=1;entryY=0.5;entryDx=0;entryDy=0;dashed=0;strokeColor=#4284F3;strokeWidth=2;align=center;verticalAlign=middle;fontFamily=Helvetica;fontSize=12;fontColor=default;labelBackgroundColor=default;startSize=4;endArrow=blockThin;endFill=1;endSize=4;startArrow=blockThin;startFill=1;" parent="1" source="FzRYmF3HzqH8AZuYZzv0-87" target="FzRYmF3HzqH8AZuYZzv0-108" edge="1">
          <mxGeometry relative="1" as="geometry" />
        </mxCell>
        <mxCell id="FzRYmF3HzqH8AZuYZzv0-143" style="edgeStyle=orthogonalEdgeStyle;shape=connector;rounded=0;orthogonalLoop=1;jettySize=auto;html=1;exitX=0;exitY=0;exitDx=0;exitDy=0;entryX=1;entryY=0.5;entryDx=0;entryDy=0;dashed=0;strokeColor=#4284F3;strokeWidth=2;align=center;verticalAlign=middle;fontFamily=Helvetica;fontSize=12;fontColor=default;labelBackgroundColor=default;startSize=4;endArrow=blockThin;endFill=1;endSize=4;startArrow=blockThin;startFill=1;" parent="1" source="FzRYmF3HzqH8AZuYZzv0-87" target="FzRYmF3HzqH8AZuYZzv0-104" edge="1">
          <mxGeometry relative="1" as="geometry" />
        </mxCell>
        <mxCell id="FzRYmF3HzqH8AZuYZzv0-87" value="" style="shape=image;verticalLabelPosition=bottom;labelBackgroundColor=default;verticalAlign=top;aspect=fixed;imageAspect=0;image=https://upload.wikimedia.org/wikipedia/commons/thumb/c/ca/MariaDB_colour_logo.svg/800px-MariaDB_colour_logo.svg.png;" parent="1" vertex="1">
          <mxGeometry x="1190" y="817.25" width="281.94" height="80" as="geometry" />
        </mxCell>
        <mxCell id="FzRYmF3HzqH8AZuYZzv0-88" value="" style="group" parent="1" vertex="1" connectable="0">
          <mxGeometry x="1212.22" y="1007" width="237.5" height="92" as="geometry" />
        </mxCell>
        <mxCell id="FzRYmF3HzqH8AZuYZzv0-89" value="" style="group" parent="FzRYmF3HzqH8AZuYZzv0-88" connectable="0" vertex="1">
          <mxGeometry width="237.5" height="92" as="geometry" />
        </mxCell>
        <mxCell id="FzRYmF3HzqH8AZuYZzv0-90" value="" style="rounded=1;whiteSpace=wrap;html=1;strokeColor=#5ECF75;strokeWidth=3;fontColor=#5ECF75;" parent="FzRYmF3HzqH8AZuYZzv0-89" vertex="1">
          <mxGeometry y="-1" width="237.5" height="92" as="geometry" />
        </mxCell>
        <mxCell id="FzRYmF3HzqH8AZuYZzv0-91" value="Event API" style="strokeColor=#dddddd;shadow=1;strokeWidth=1;rounded=1;absoluteArcSize=1;arcSize=2;fontSize=16;fontStyle=1" parent="FzRYmF3HzqH8AZuYZzv0-89" vertex="1">
          <mxGeometry x="24.060000000000002" y="13.25" width="189.38" height="64" as="geometry" />
        </mxCell>
        <mxCell id="FzRYmF3HzqH8AZuYZzv0-102" value="" style="group" parent="1" vertex="1" connectable="0">
          <mxGeometry x="760" y="732.75" width="237.5" height="92" as="geometry" />
        </mxCell>
        <mxCell id="FzRYmF3HzqH8AZuYZzv0-103" value="" style="group" parent="FzRYmF3HzqH8AZuYZzv0-102" connectable="0" vertex="1">
          <mxGeometry width="237.5" height="92" as="geometry" />
        </mxCell>
        <mxCell id="FzRYmF3HzqH8AZuYZzv0-104" value="" style="rounded=1;whiteSpace=wrap;html=1;strokeColor=#5ECF75;strokeWidth=3;fontColor=#5ECF75;" parent="FzRYmF3HzqH8AZuYZzv0-103" vertex="1">
          <mxGeometry width="237.5" height="92" as="geometry" />
        </mxCell>
        <mxCell id="FzRYmF3HzqH8AZuYZzv0-105" value="Review API" style="strokeColor=#dddddd;shadow=1;strokeWidth=1;rounded=1;absoluteArcSize=1;arcSize=2;fontSize=16;fontStyle=1" parent="FzRYmF3HzqH8AZuYZzv0-103" vertex="1">
          <mxGeometry x="24.060000000000002" y="13.25" width="189.38" height="64" as="geometry" />
        </mxCell>
        <mxCell id="FzRYmF3HzqH8AZuYZzv0-106" value="" style="group" parent="1" vertex="1" connectable="0">
          <mxGeometry x="760" y="605.25" width="1370" height="580" as="geometry" />
        </mxCell>
        <mxCell id="FzRYmF3HzqH8AZuYZzv0-107" value="" style="group" parent="FzRYmF3HzqH8AZuYZzv0-106" connectable="0" vertex="1">
          <mxGeometry width="1370" height="580" as="geometry" />
        </mxCell>
        <mxCell id="FzRYmF3HzqH8AZuYZzv0-108" value="" style="rounded=1;whiteSpace=wrap;html=1;strokeColor=#5ECF75;strokeWidth=3;fontColor=#5ECF75;" parent="FzRYmF3HzqH8AZuYZzv0-107" vertex="1">
          <mxGeometry width="237.5" height="92" as="geometry" />
        </mxCell>
        <mxCell id="FzRYmF3HzqH8AZuYZzv0-109" value="Reservation API" style="strokeColor=#dddddd;shadow=1;strokeWidth=1;rounded=1;absoluteArcSize=1;arcSize=2;fontSize=16;fontStyle=1" parent="FzRYmF3HzqH8AZuYZzv0-107" vertex="1">
          <mxGeometry x="24.060000000000002" y="13.25" width="189.38" height="64" as="geometry" />
        </mxCell>
        <mxCell id="FzRYmF3HzqH8AZuYZzv0-110" value="" style="group" parent="1" vertex="1" connectable="0">
          <mxGeometry x="1213.22" y="623.25" width="237.5" height="92" as="geometry" />
        </mxCell>
        <mxCell id="FzRYmF3HzqH8AZuYZzv0-111" value="" style="group" parent="FzRYmF3HzqH8AZuYZzv0-110" connectable="0" vertex="1">
          <mxGeometry width="237.5" height="92" as="geometry" />
        </mxCell>
        <mxCell id="FzRYmF3HzqH8AZuYZzv0-112" value="" style="rounded=1;whiteSpace=wrap;html=1;strokeColor=#5ECF75;strokeWidth=3;fontColor=#5ECF75;" parent="FzRYmF3HzqH8AZuYZzv0-111" vertex="1">
          <mxGeometry width="237.5" height="92" as="geometry" />
        </mxCell>
        <mxCell id="FzRYmF3HzqH8AZuYZzv0-113" value="Refund API" style="strokeColor=#dddddd;shadow=1;strokeWidth=1;rounded=1;absoluteArcSize=1;arcSize=2;fontSize=16;fontStyle=1" parent="FzRYmF3HzqH8AZuYZzv0-111" vertex="1">
          <mxGeometry x="24.060000000000002" y="13.25" width="189.38" height="64" as="geometry" />
        </mxCell>
        <mxCell id="FzRYmF3HzqH8AZuYZzv0-114" value="" style="group" parent="1" vertex="1" connectable="0">
          <mxGeometry x="760" y="919" width="237.5" height="92" as="geometry" />
        </mxCell>
        <mxCell id="FzRYmF3HzqH8AZuYZzv0-115" value="" style="group" parent="FzRYmF3HzqH8AZuYZzv0-114" connectable="0" vertex="1">
          <mxGeometry width="237.5" height="92" as="geometry" />
        </mxCell>
        <mxCell id="FzRYmF3HzqH8AZuYZzv0-116" value="" style="rounded=1;whiteSpace=wrap;html=1;strokeColor=#5ECF75;strokeWidth=3;fontColor=#5ECF75;" parent="FzRYmF3HzqH8AZuYZzv0-115" vertex="1">
          <mxGeometry width="237.5" height="92" as="geometry" />
        </mxCell>
        <mxCell id="FzRYmF3HzqH8AZuYZzv0-117" value="Post API" style="strokeColor=#dddddd;shadow=1;strokeWidth=1;rounded=1;absoluteArcSize=1;arcSize=2;fontSize=16;fontStyle=1" parent="FzRYmF3HzqH8AZuYZzv0-115" vertex="1">
          <mxGeometry x="24.060000000000002" y="13.25" width="189.38" height="64" as="geometry" />
        </mxCell>
        <mxCell id="FzRYmF3HzqH8AZuYZzv0-123" value="" style="group" parent="1" vertex="1" connectable="0">
          <mxGeometry x="1850" y="732.75" width="860" height="327.25" as="geometry" />
        </mxCell>
        <mxCell id="FzRYmF3HzqH8AZuYZzv0-124" value="" style="group" parent="FzRYmF3HzqH8AZuYZzv0-123" connectable="0" vertex="1">
          <mxGeometry width="860" height="327.25" as="geometry" />
        </mxCell>
        <mxCell id="FzRYmF3HzqH8AZuYZzv0-125" value="" style="rounded=1;whiteSpace=wrap;html=1;strokeColor=#5ECF75;strokeWidth=3;fontColor=#5ECF75;" parent="FzRYmF3HzqH8AZuYZzv0-124" vertex="1">
          <mxGeometry width="237.5" height="92" as="geometry" />
        </mxCell>
        <mxCell id="FzRYmF3HzqH8AZuYZzv0-126" value="Auth API" style="strokeColor=#dddddd;shadow=1;strokeWidth=1;rounded=1;absoluteArcSize=1;arcSize=2;fontSize=16;fontStyle=1" parent="FzRYmF3HzqH8AZuYZzv0-124" vertex="1">
          <mxGeometry x="24.060000000000002" y="13.25" width="189.38" height="64" as="geometry" />
        </mxCell>
        <mxCell id="FzRYmF3HzqH8AZuYZzv0-153" value="" style="shape=image;verticalLabelPosition=bottom;labelBackgroundColor=default;verticalAlign=top;aspect=fixed;imageAspect=0;image=https://blog.kakaocdn.net/dn/ovNIJ/btqzv6TExs5/edFS4MQL6xCe6lxPpy006K/img.png;" parent="FzRYmF3HzqH8AZuYZzv0-124" vertex="1">
          <mxGeometry x="530" y="127.25" width="247.21" height="87.25" as="geometry" />
        </mxCell>
        <mxCell id="FzRYmF3HzqH8AZuYZzv0-154" value="" style="shape=image;verticalLabelPosition=bottom;labelBackgroundColor=default;verticalAlign=top;aspect=fixed;imageAspect=0;image=https://img.icons8.com/fluent/512/javascript.png;" parent="FzRYmF3HzqH8AZuYZzv0-124" vertex="1">
          <mxGeometry x="598" y="211.52" width="115.73" height="115.73" as="geometry" />
        </mxCell>
        <mxCell id="FzRYmF3HzqH8AZuYZzv0-6" value="" style="strokeColor=#dddddd;shadow=1;strokeWidth=1;rounded=1;absoluteArcSize=1;arcSize=2;" parent="FzRYmF3HzqH8AZuYZzv0-124" vertex="1">
          <mxGeometry x="340" y="117.25" width="130" height="70" as="geometry" />
        </mxCell>
        <mxCell id="FzRYmF3HzqH8AZuYZzv0-7" value="&lt;font style=&quot;font-size: 17px;&quot;&gt;&lt;b style=&quot;&quot;&gt;Gateway&lt;/b&gt;&lt;/font&gt;" style="sketch=0;dashed=0;connectable=0;html=1;fillColor=#757575;strokeColor=none;shape=mxgraph.gcp2.gateway;part=1;labelPosition=right;verticalLabelPosition=middle;align=left;verticalAlign=middle;spacingLeft=5;fontSize=12;" parent="FzRYmF3HzqH8AZuYZzv0-6" vertex="1">
          <mxGeometry y="0.5" width="32" height="32" relative="1" as="geometry">
            <mxPoint x="5" y="-16" as="offset" />
          </mxGeometry>
        </mxCell>
        <mxCell id="FzRYmF3HzqH8AZuYZzv0-133" style="edgeStyle=orthogonalEdgeStyle;shape=connector;rounded=0;orthogonalLoop=1;jettySize=auto;html=1;entryX=0.5;entryY=0;entryDx=0;entryDy=0;dashed=0;strokeColor=#4284F3;strokeWidth=2;align=center;verticalAlign=middle;fontFamily=Helvetica;fontSize=12;fontColor=default;labelBackgroundColor=default;startSize=4;endArrow=blockThin;endFill=1;endSize=4;startArrow=blockThin;startFill=1;" parent="1" source="FzRYmF3HzqH8AZuYZzv0-127" target="FzRYmF3HzqH8AZuYZzv0-125" edge="1">
          <mxGeometry relative="1" as="geometry" />
        </mxCell>
        <mxCell id="FzRYmF3HzqH8AZuYZzv0-127" value="" style="shape=image;verticalLabelPosition=bottom;labelBackgroundColor=default;verticalAlign=top;aspect=fixed;imageAspect=0;image=https://velog.velcdn.com/images/yuureru/post/90698ea7-be7c-45ab-a61c-acc75fdc1b5d/image.png;" parent="1" vertex="1">
          <mxGeometry x="1872" y="560" width="195" height="130" as="geometry" />
        </mxCell>
        <mxCell id="FzRYmF3HzqH8AZuYZzv0-94" value="" style="group" parent="1" vertex="1" connectable="0">
          <mxGeometry x="1690" y="1055" width="237.5" height="92" as="geometry" />
        </mxCell>
        <mxCell id="FzRYmF3HzqH8AZuYZzv0-95" value="" style="group" parent="FzRYmF3HzqH8AZuYZzv0-94" connectable="0" vertex="1">
          <mxGeometry width="237.5" height="92" as="geometry" />
        </mxCell>
        <mxCell id="FzRYmF3HzqH8AZuYZzv0-96" value="" style="rounded=1;whiteSpace=wrap;html=1;strokeColor=#5ECF75;strokeWidth=3;fontColor=#5ECF75;" parent="FzRYmF3HzqH8AZuYZzv0-95" vertex="1">
          <mxGeometry width="237.5" height="92" as="geometry" />
        </mxCell>
        <mxCell id="FzRYmF3HzqH8AZuYZzv0-97" value="Government API" style="strokeColor=#dddddd;shadow=1;strokeWidth=1;rounded=1;absoluteArcSize=1;arcSize=2;fontSize=16;fontStyle=1" parent="FzRYmF3HzqH8AZuYZzv0-95" vertex="1">
          <mxGeometry x="24.060000000000002" y="13.25" width="189.38" height="64" as="geometry" />
        </mxCell>
        <mxCell id="FzRYmF3HzqH8AZuYZzv0-99" value="" style="group" parent="1" connectable="0" vertex="1">
          <mxGeometry x="1690" y="923" width="237.5" height="92" as="geometry" />
        </mxCell>
        <mxCell id="FzRYmF3HzqH8AZuYZzv0-100" value="" style="rounded=1;whiteSpace=wrap;html=1;strokeColor=#5ECF75;strokeWidth=3;fontColor=#5ECF75;" parent="FzRYmF3HzqH8AZuYZzv0-99" vertex="1">
          <mxGeometry width="237.5" height="92" as="geometry" />
        </mxCell>
        <mxCell id="FzRYmF3HzqH8AZuYZzv0-101" value="Route API" style="strokeColor=#dddddd;shadow=1;strokeWidth=1;rounded=1;absoluteArcSize=1;arcSize=2;fontSize=16;fontStyle=1" parent="FzRYmF3HzqH8AZuYZzv0-99" vertex="1">
          <mxGeometry x="24.060000000000002" y="13.25" width="189.38" height="64" as="geometry" />
        </mxCell>
        <mxCell id="FzRYmF3HzqH8AZuYZzv0-134" style="edgeStyle=orthogonalEdgeStyle;shape=connector;rounded=0;orthogonalLoop=1;jettySize=auto;html=1;entryX=0;entryY=0.5;entryDx=0;entryDy=0;dashed=0;strokeColor=#4284F3;strokeWidth=2;align=center;verticalAlign=middle;fontFamily=Helvetica;fontSize=12;fontColor=default;labelBackgroundColor=default;startSize=4;endArrow=blockThin;endFill=1;endSize=4;exitX=1.012;exitY=0.581;exitDx=0;exitDy=0;exitPerimeter=0;startArrow=block;startFill=1;" parent="1" source="FzRYmF3HzqH8AZuYZzv0-19" target="FzRYmF3HzqH8AZuYZzv0-125" edge="1">
          <mxGeometry relative="1" as="geometry" />
        </mxCell>
        <mxCell id="FzRYmF3HzqH8AZuYZzv0-135" style="edgeStyle=orthogonalEdgeStyle;shape=connector;rounded=0;orthogonalLoop=1;jettySize=auto;html=1;entryX=1;entryY=0.5;entryDx=0;entryDy=0;dashed=0;strokeColor=#4284F3;strokeWidth=2;align=center;verticalAlign=middle;fontFamily=Helvetica;fontSize=12;fontColor=default;labelBackgroundColor=default;startSize=4;endArrow=blockThin;endFill=1;endSize=4;exitX=0.5;exitY=1;exitDx=0;exitDy=0;startArrow=classicThin;startFill=0;" parent="1" source="FzRYmF3HzqH8AZuYZzv0-19" target="FzRYmF3HzqH8AZuYZzv0-87" edge="1">
          <mxGeometry relative="1" as="geometry" />
        </mxCell>
        <mxCell id="FzRYmF3HzqH8AZuYZzv0-118" value="" style="group" parent="1" vertex="1" connectable="0">
          <mxGeometry x="760" y="1055" width="237.5" height="92" as="geometry" />
        </mxCell>
        <mxCell id="FzRYmF3HzqH8AZuYZzv0-119" value="" style="group" parent="FzRYmF3HzqH8AZuYZzv0-118" connectable="0" vertex="1">
          <mxGeometry width="237.5" height="92" as="geometry" />
        </mxCell>
        <mxCell id="FzRYmF3HzqH8AZuYZzv0-120" value="" style="rounded=1;whiteSpace=wrap;html=1;strokeColor=#5ECF75;strokeWidth=3;fontColor=#5ECF75;" parent="FzRYmF3HzqH8AZuYZzv0-119" vertex="1">
          <mxGeometry width="237.5" height="92" as="geometry" />
        </mxCell>
        <mxCell id="FzRYmF3HzqH8AZuYZzv0-121" value="Comment API" style="strokeColor=#dddddd;shadow=1;strokeWidth=1;rounded=1;absoluteArcSize=1;arcSize=2;fontSize=16;fontStyle=1" parent="FzRYmF3HzqH8AZuYZzv0-119" vertex="1">
          <mxGeometry x="24.060000000000002" y="13.25" width="189.38" height="64" as="geometry" />
        </mxCell>
        <mxCell id="FzRYmF3HzqH8AZuYZzv0-136" style="edgeStyle=orthogonalEdgeStyle;shape=connector;rounded=0;orthogonalLoop=1;jettySize=auto;html=1;exitX=0.5;exitY=1;exitDx=0;exitDy=0;dashed=0;strokeColor=#4284F3;strokeWidth=2;align=center;verticalAlign=middle;fontFamily=Helvetica;fontSize=12;fontColor=default;labelBackgroundColor=default;startSize=4;endArrow=blockThin;endFill=1;endSize=4;entryX=0.5;entryY=0;entryDx=0;entryDy=0;startArrow=blockThin;startFill=1;" parent="1" source="FzRYmF3HzqH8AZuYZzv0-87" target="FzRYmF3HzqH8AZuYZzv0-90" edge="1">
          <mxGeometry relative="1" as="geometry">
            <mxPoint x="1331" y="970" as="targetPoint" />
          </mxGeometry>
        </mxCell>
        <mxCell id="FzRYmF3HzqH8AZuYZzv0-141" style="edgeStyle=orthogonalEdgeStyle;shape=connector;rounded=0;orthogonalLoop=1;jettySize=auto;html=1;exitX=0.5;exitY=0;exitDx=0;exitDy=0;entryX=0.5;entryY=1;entryDx=0;entryDy=0;dashed=0;strokeColor=#4284F3;strokeWidth=2;align=center;verticalAlign=middle;fontFamily=Helvetica;fontSize=12;fontColor=default;labelBackgroundColor=default;startSize=4;endArrow=blockThin;endFill=1;endSize=4;startArrow=blockThin;startFill=1;" parent="1" source="FzRYmF3HzqH8AZuYZzv0-87" target="FzRYmF3HzqH8AZuYZzv0-112" edge="1">
          <mxGeometry relative="1" as="geometry" />
        </mxCell>
        <mxCell id="FzRYmF3HzqH8AZuYZzv0-148" style="edgeStyle=orthogonalEdgeStyle;shape=connector;rounded=0;orthogonalLoop=1;jettySize=auto;html=1;exitX=1;exitY=0.516;exitDx=0;exitDy=0;entryX=0;entryY=0.5;entryDx=0;entryDy=0;dashed=0;strokeColor=#4284F3;strokeWidth=2;align=center;verticalAlign=middle;fontFamily=Helvetica;fontSize=12;fontColor=default;labelBackgroundColor=default;startSize=4;endArrow=blockThin;endFill=1;endSize=4;exitPerimeter=0;" parent="1" source="FzRYmF3HzqH8AZuYZzv0-146" target="FzRYmF3HzqH8AZuYZzv0-162" edge="1">
          <mxGeometry relative="1" as="geometry" />
        </mxCell>
        <mxCell id="FzRYmF3HzqH8AZuYZzv0-149" value="" style="shape=image;verticalLabelPosition=bottom;labelBackgroundColor=default;verticalAlign=top;aspect=fixed;imageAspect=0;image=https://www.opentext.com/assets/images/partners/opentext-aws-logo-cover-416x274.png;" parent="1" vertex="1">
          <mxGeometry x="600" y="370" width="226.6" height="149.25" as="geometry" />
        </mxCell>
        <mxCell id="FzRYmF3HzqH8AZuYZzv0-150" value="" style="shape=image;verticalLabelPosition=bottom;labelBackgroundColor=default;verticalAlign=top;aspect=fixed;imageAspect=0;image=https://img.icons8.com/color/512/nginx.png;" parent="1" vertex="1">
          <mxGeometry x="960" y="360" width="160" height="160" as="geometry" />
        </mxCell>
        <mxCell id="FzRYmF3HzqH8AZuYZzv0-162" value="" style="rounded=1;whiteSpace=wrap;html=1;strokeColor=#5ECF75;strokeWidth=3;fontColor=#5ECF75;fillColor=none;" parent="1" vertex="1">
          <mxGeometry x="2170" y="840" width="171.75" height="92" as="geometry" />
        </mxCell>
        <mxCell id="FzRYmF3HzqH8AZuYZzv0-151" value="Front" style="strokeColor=#dddddd;shadow=1;strokeWidth=1;rounded=1;absoluteArcSize=1;arcSize=2;fontSize=18;fontStyle=1" parent="1" vertex="1">
          <mxGeometry x="2422.38" y="780" width="160" height="64" as="geometry" />
        </mxCell>
        <mxCell id="FzRYmF3HzqH8AZuYZzv0-166" value="" style="shape=cross;whiteSpace=wrap;html=1;fontFamily=Helvetica;fontSize=12;fontColor=default;labelBackgroundColor=default;strokeColor=none;fillColor=#3399FF;" parent="1" vertex="1">
          <mxGeometry x="860" y="404.63" width="80" height="80" as="geometry" />
        </mxCell>
      </root>
    </mxGraphModel>
  </diagram>
</mxfile>
